<svg xmlns="http://www.w3.org/2000/svg" xmlns:xlink="http://www.w3.org/1999/xlink" viewBox="0 0 451.93 336.28"><defs><style>.cls-1{fill:url(#Degradado_sin_nombre_49);}.cls-2{fill:#fff;}.cls-3{fill:url(#Degradado_sin_nombre_27);}.cls-4{fill:url(#Degradado_sin_nombre_24);}.cls-5{fill:#c2a0f8;}.cls-6{fill:#65e7f6;}.cls-7{fill:#95caf7;}.cls-8{fill:url(#Degradado_sin_nombre_24-2);}.cls-9{fill:url(#Degradado_sin_nombre_24-3);}</style><linearGradient id="Degradado_sin_nombre_49" x1="186.54" y1="71.92" x2="253.83" y2="297.28" gradientUnits="userSpaceOnUse"><stop offset="0.13" stop-color="#bc404f"/><stop offset="0.86" stop-color="#bc404f" stop-opacity="0"/></linearGradient><linearGradient id="Degradado_sin_nombre_27" x1="211.83" y1="37.41" x2="235.33" y2="37.41" gradientUnits="userSpaceOnUse"><stop offset="0.24" stop-color="#b6a3f5"/><stop offset="0.52" stop-color="#aabdf5"/><stop offset="0.89" stop-color="#98e6f5"/></linearGradient><linearGradient id="Degradado_sin_nombre_24" x1="255.52" y1="106.29" x2="299.14" y2="106.29" gradientUnits="userSpaceOnUse"><stop offset="0.25" stop-color="#d857f4"/><stop offset="0.34" stop-color="#d65cf4"/><stop offset="0.45" stop-color="#d069f4"/><stop offset="0.57" stop-color="#c680f4"/><stop offset="0.69" stop-color="#b7a0f5"/><stop offset="0.81" stop-color="#a5c8f5"/><stop offset="0.89" stop-color="#98e6f5"/></linearGradient><linearGradient id="Degradado_sin_nombre_24-2" x1="10.05" y1="67.43" x2="208.11" y2="103.62" xlink:href="#Degradado_sin_nombre_24"/><linearGradient id="Degradado_sin_nombre_24-3" x1="236.15" y1="78.04" x2="325.04" y2="94.28" xlink:href="#Degradado_sin_nombre_24"/></defs><title>Recurso 13</title><g id="Capa_2" data-name="Capa 2"><g id="Capa_1-2" data-name="Capa 1"><path class="cls-1" d="M10.71,113.69a16.66,16.66,0,0,0,.66,9.27c1.93,4.77,5.56,9.76,7.94,14.47l61,121.13,39.15,77.72,332.45-13.43-3.6-7.47L396.06,207l-31.62-65.57-12.86-26.67c-4.59-9.52-6.49-22.51-15-29-5.27-4-11.7-6.19-18-8.28L283.17,65.71c-9.84-3.27-26.77-9.78-37-11.43-31-5-55,1-91-3-3.88-.43-11.3-9.18-14-12-2.46-2.57-6.18-1.35-7.6-4.61-3.18-7.27-9.33-15.49-16.73-18.57-8.84-3.68-21-3.44-30.39-3.62C73,12.22,66.8,20,57.23,28.4L28.29,53.93c-2.64,2.32-5.32,4.71-7.07,7.76-4.67,8.18-1.43,18.46-2.65,27.8C17.6,97,12.16,105.58,10.71,113.69Z"/><path class="cls-2" d="M171.59,146a8.64,8.64,0,0,0-4.15,3.31,9.61,9.61,0,0,0-1.46,5.43,5.22,5.22,0,0,0,.28,2.06,3.41,3.41,0,0,1,.28.66,4.92,4.92,0,0,1-3.23-.9,3.76,3.76,0,0,1-1.06-3,7.51,7.51,0,0,1,2.11-5,15.47,15.47,0,0,1,5.38-3.93,15.7,15.7,0,0,1,6.57-1.5c.38,0,.91,0,1.61.08l-6.37,30h-5.77Z"/><path class="cls-2" d="M187.91,172.11a4.71,4.71,0,0,1-1.14-3.22A10.79,10.79,0,0,1,187,167c.13-.7.27-1.39.42-2.06s.25-1.09.3-1.28c.21-.94.41-1.86.6-2.77a11.12,11.12,0,0,0,.28-2.2q0-2-1.44-2a2.31,2.31,0,0,0-1.84,1,7.76,7.76,0,0,0-1.28,2.66l-2.73,12.86h-5.77l4.25-20h5.77l-.44,2.09a6.08,6.08,0,0,1,4.68-2.25A4.6,4.6,0,0,1,193,154.1a4.47,4.47,0,0,1,1.2,3.41,13.16,13.16,0,0,1-.28,2.58c-.19.95-.45,2.11-.8,3.47-.21.83-.41,1.64-.58,2.42a8.8,8.8,0,0,0-.26,1.87,1.93,1.93,0,0,0,.36,1.24,1.53,1.53,0,0,0,1.24.44,2.39,2.39,0,0,0,1.92-.86,10.27,10.27,0,0,0,1.45-2.67H199q-1.48,4.41-3.43,5.91a6.48,6.48,0,0,1-4,1.5A4.53,4.53,0,0,1,187.91,172.11Z"/><path class="cls-2" d="M218,172.11a4.71,4.71,0,0,1-1.14-3.22,9.93,9.93,0,0,1,.2-1.91c.13-.7.27-1.39.42-2.06s.24-1.09.3-1.28c.21-.94.41-1.86.6-2.77a11.93,11.93,0,0,0,.28-2.2q0-2-1.44-2a2.33,2.33,0,0,0-1.85,1,7.94,7.94,0,0,0-1.28,2.66l-2.72,12.86h-5.77l2.92-13.82a4.09,4.09,0,0,0,.12-1c0-1.17-.4-1.76-1.2-1.76a2.43,2.43,0,0,0-1.94,1,7.55,7.55,0,0,0-1.3,2.7l-2.73,12.86h-5.77l4.25-20h5.77l-.44,2.09a6.32,6.32,0,0,1,4.89-2.29,3.76,3.76,0,0,1,4.12,3.45q2.21-3.4,5.57-3.41a4.63,4.63,0,0,1,3.25,1.12,4.47,4.47,0,0,1,1.2,3.41,14,14,0,0,1-.28,2.58c-.19.95-.46,2.11-.8,3.47-.22.83-.41,1.64-.59,2.42a9.5,9.5,0,0,0-.26,1.87,1.93,1.93,0,0,0,.36,1.24,1.55,1.55,0,0,0,1.25.44,2.39,2.39,0,0,0,1.92-.86,10.29,10.29,0,0,0,1.44-2.67h1.68c-1,2.94-2.13,4.91-3.42,5.91a6.53,6.53,0,0,1-4,1.5A4.51,4.51,0,0,1,218,172.11Z"/><path class="cls-2" d="M228.55,171.81c-1.15-1-1.72-2.62-1.72-4.81A19.36,19.36,0,0,1,228,161a14.27,14.27,0,0,1,3.61-5.74,8.57,8.57,0,0,1,6.25-2.43q5.13,0,5.13,6.41v0a1.46,1.46,0,0,0,.44,0,8.17,8.17,0,0,0,3-.7,15.37,15.37,0,0,0,3.13-1.7l.36,1.08a9.59,9.59,0,0,1-3,2.1,15.48,15.48,0,0,1-4.06,1.23,18.33,18.33,0,0,1-1.65,6.37,10.82,10.82,0,0,1-3.4,4.2,7.64,7.64,0,0,1-4.53,1.48A6.81,6.81,0,0,1,228.55,171.81Zm8.22-3.18a10,10,0,0,0,1.68-3,19.31,19.31,0,0,0,1-4.22c-.72-.16-1.08-.73-1.08-1.69a2.1,2.1,0,0,1,1.24-2.16,4.1,4.1,0,0,0-.4-1.82,1.21,1.21,0,0,0-1.12-.5c-.88,0-1.74.64-2.57,1.92a19.69,19.69,0,0,0-2.76,9.33,5.19,5.19,0,0,0,.44,2.59,1.78,1.78,0,0,0,1.6.66A2.69,2.69,0,0,0,236.77,168.63Z"/><path class="cls-2" d="M246.14,172.07a4.9,4.9,0,0,1-1.44-3.78A9,9,0,0,1,245,166l4.29-20.07,5.92-.8-1.92,9a9.13,9.13,0,0,1,1.84-.9,5.21,5.21,0,0,1,1.45-.22c3.15,0,4.72,2.29,4.72,6.85a18.39,18.39,0,0,1-1.06,5.91,12.63,12.63,0,0,1-3.52,5.39,9.13,9.13,0,0,1-6.39,2.24A5.87,5.87,0,0,1,246.14,172.07Zm8.73-4.08a12.58,12.58,0,0,0,1.73-3.85,16.82,16.82,0,0,0,.64-4.43,6.11,6.11,0,0,0-.56-2.72,1.73,1.73,0,0,0-1.57-1.12,5.77,5.77,0,0,0-1.34.18,1.82,1.82,0,0,0-1,.54l-2.2,10.17a3.83,3.83,0,0,0-.12.93c0,1.22.7,1.84,2.12,1.84A3,3,0,0,0,254.87,168Z"/><path class="cls-2" d="M263.63,172.21a4.93,4.93,0,0,1-1.19-3.6,13.56,13.56,0,0,1,.33-2.61l2.72-12.86h5.77l-2.89,13.62a5.3,5.3,0,0,0-.16,1.29,1.49,1.49,0,0,0,.38,1.14,2,2,0,0,0,1.27.34,3.07,3.07,0,0,0,2.16-1,5.61,5.61,0,0,0,1.44-2.55h1.68c-1,2.89-2.25,4.84-3.8,5.87a8.3,8.3,0,0,1-4.61,1.54A4.14,4.14,0,0,1,263.63,172.21Zm3.58-22.15a3.08,3.08,0,0,1-.92-2.25,3.13,3.13,0,0,1,.92-2.26,3,3,0,0,1,2.25-.94,3.21,3.21,0,0,1,3.2,3.2,3,3,0,0,1-.94,2.25,3.13,3.13,0,0,1-2.26.92A3.08,3.08,0,0,1,267.21,150.06Z"/><path class="cls-2" d="M274.32,172.21a4.93,4.93,0,0,1-1.18-3.6,14.25,14.25,0,0,1,.32-2.61l4.29-20.07,5.93-.8-4.61,21.63a4.85,4.85,0,0,0-.16,1.29,1.49,1.49,0,0,0,.38,1.14,1.9,1.9,0,0,0,1.26.34,3.08,3.08,0,0,0,2.17-1,5.8,5.8,0,0,0,1.44-2.55h1.68c-1,2.89-2.26,4.84-3.81,5.87a8.24,8.24,0,0,1-4.6,1.54A4.18,4.18,0,0,1,274.32,172.21Z"/><path class="cls-2" d="M285,172.21a4.93,4.93,0,0,1-1.18-3.6,13.42,13.42,0,0,1,.32-2.61l2.72-12.86h5.77l-2.88,13.62a4.85,4.85,0,0,0-.16,1.29,1.45,1.45,0,0,0,.38,1.14,1.9,1.9,0,0,0,1.26.34,3.07,3.07,0,0,0,2.16-1,5.61,5.61,0,0,0,1.44-2.55h1.69c-1,2.89-2.26,4.84-3.81,5.87a8.27,8.27,0,0,1-4.61,1.54A4.16,4.16,0,0,1,285,172.21Zm3.58-22.15a3.08,3.08,0,0,1-.92-2.25,3.13,3.13,0,0,1,.92-2.26,3,3,0,0,1,2.25-.94,3.21,3.21,0,0,1,3.2,3.2,3,3,0,0,1-.94,2.25,3.13,3.13,0,0,1-2.26.92A3.09,3.09,0,0,1,288.6,150.06Z"/><path class="cls-2" d="M295.85,171.85q-1.52-1.56-1.52-4.89a18.53,18.53,0,0,1,1.18-6.23,14.43,14.43,0,0,1,3.53-5.52,7.77,7.77,0,0,1,5.59-2.27,4.31,4.31,0,0,1,2.44.56,1.73,1.73,0,0,1,.8,1.49v.28l.44-2.13h5.77l-2.88,13.62a4.85,4.85,0,0,0-.16,1.29c0,1.14.55,1.72,1.64,1.72a2.41,2.41,0,0,0,1.94-1,7.89,7.89,0,0,0,1.31-2.73h1.68c-1,2.89-2.21,4.84-3.67,5.87a7.53,7.53,0,0,1-4.38,1.54,3.82,3.82,0,0,1-2.71-.94,4.18,4.18,0,0,1-1.22-2.74,11.49,11.49,0,0,1-2.58,2.66,5.67,5.67,0,0,1-3.39,1A5.12,5.12,0,0,1,295.85,171.85Zm8.4-3.26a5,5,0,0,0,1.34-2.59l1.92-9.05a1.59,1.59,0,0,0-.4-1,1.47,1.47,0,0,0-1.24-.5,3.56,3.56,0,0,0-2.88,1.86,14.6,14.6,0,0,0-2,4.49,17.76,17.76,0,0,0-.72,4.62,3.86,3.86,0,0,0,.58,2.57,2,2,0,0,0,1.42.56A2.94,2.94,0,0,0,304.25,168.59Z"/><path class="cls-2" d="M318.65,153.14h5.77l-.52,2.49a16.74,16.74,0,0,1,2.46-1.85,4.75,4.75,0,0,1,2.39-.64,2.53,2.53,0,0,1,2,.88,3.23,3.23,0,0,1,.74,2.13,3,3,0,0,1-.76,2,2.65,2.65,0,0,1-2.12.88,1.39,1.39,0,0,1-1.19-.42,3.28,3.28,0,0,1-.46-1.22,3.6,3.6,0,0,0-.24-.76.45.45,0,0,0-.44-.24,2.74,2.74,0,0,0-1.42.34,9.65,9.65,0,0,0-1.5,1.18l-3.21,15.22H314.4Z"/><path class="cls-2" d="M331.85,172.21a4.93,4.93,0,0,1-1.18-3.6A13.42,13.42,0,0,1,331,166l2.72-12.86h5.77l-2.88,13.62a4.85,4.85,0,0,0-.16,1.29,1.45,1.45,0,0,0,.38,1.14,1.9,1.9,0,0,0,1.26.34,3.07,3.07,0,0,0,2.16-1,5.61,5.61,0,0,0,1.44-2.55h1.69c-1,2.89-2.26,4.84-3.81,5.87a8.27,8.27,0,0,1-4.61,1.54A4.16,4.16,0,0,1,331.85,172.21Zm3.58-22.15a3.08,3.08,0,0,1-.92-2.25,3.13,3.13,0,0,1,.92-2.26,3,3,0,0,1,2.25-.94,3.21,3.21,0,0,1,3.2,3.2,3,3,0,0,1-.94,2.25,3.13,3.13,0,0,1-2.26.92A3.09,3.09,0,0,1,335.43,150.06Z"/><path class="cls-2" d="M342.69,171.85q-1.53-1.56-1.53-4.89a18.31,18.31,0,0,1,1.19-6.23,14.3,14.3,0,0,1,3.52-5.52,7.77,7.77,0,0,1,5.59-2.27,4.31,4.31,0,0,1,2.44.56,1.73,1.73,0,0,1,.8,1.49v.28l.44-2.13h5.77L358,166.76a4.85,4.85,0,0,0-.16,1.29,1.49,1.49,0,0,0,.38,1.14,1.9,1.9,0,0,0,1.26.34,1.92,1.92,0,0,0,.88-.16,11,11,0,0,1-1.68,3.14,2.94,2.94,0,0,1-2.32.9,3.66,3.66,0,0,1-2.67-1,4.51,4.51,0,0,1-1.26-2.74q-2.44,3.72-6,3.72A5.08,5.08,0,0,1,342.69,171.85Zm8.39-3.26a5,5,0,0,0,1.34-2.59l1.92-9.05a1.59,1.59,0,0,0-.4-1,1.47,1.47,0,0,0-1.24-.5,3.56,3.56,0,0,0-2.88,1.86,14.6,14.6,0,0,0-2,4.49,17.76,17.76,0,0,0-.72,4.62,3.86,3.86,0,0,0,.58,2.57,2,2,0,0,0,1.43.56A2.94,2.94,0,0,0,351.08,168.59Z"/><circle class="cls-3" cx="223.58" cy="37.41" r="11.75"/><path class="cls-4" d="M279.86,85.72A4.9,4.9,0,0,0,278,84.49h-1.36a5,5,0,0,0-1.82,1.22l-17.92,17.92a7.14,7.14,0,0,0-.92,1.06,2.74,2.74,0,0,0-.15,2.91A2.55,2.55,0,0,0,258.3,109h2.12c.56,0,.57,0,.57.57q0,7.86,0,15.73a2.7,2.7,0,0,0,2.16,2.69,2.32,2.32,0,0,0,.59.06c2.55,0,5.1,0,7.65,0,.43,0,.56-.12.56-.55,0-4.3,0-8.59,0-12.89a2.71,2.71,0,0,1,1.91-2.76,3.36,3.36,0,0,1,1-.14c1.66,0,3.32,0,5,0a2.74,2.74,0,0,1,2.93,2.93v12.8c0,.6,0,.6.62.6h7.52a2.71,2.71,0,0,0,2.81-2.82q0-7.8,0-15.6c0-.63,0-.63.63-.63h2a2.66,2.66,0,0,0,2.72-1.83l.1-.24v-1.36a4.74,4.74,0,0,0-1.16-1.76c-1.28-1.27-2.54-2.56-3.82-3.82l-8.67-8.79Z"/><path class="cls-5" d="M161,58.07q-3,0-5.48,3.54a28.05,28.05,0,0,0-3.81,8.52,33.81,33.81,0,0,0-1.37,8.79c0,2.54.37,4.16,1.11,4.87a3.72,3.72,0,0,0,2.7,1.06A5.47,5.47,0,0,0,158,83.07a9.33,9.33,0,0,0,2.55-4.91L164.16,61A3.14,3.14,0,0,0,163.4,59,2.86,2.86,0,0,0,161,58.07Z"/><path class="cls-6" d="M189.58,82.34c0,1.68.86,2.51,2.59,2.51q3.5,0,6.5-4.41a37.42,37.42,0,0,0,4.83-10.5,37.38,37.38,0,0,0,1.83-10.5q-.15.38-1,.57a6.48,6.48,0,0,1-1.44.19,2.22,2.22,0,0,1-2-1.22,5.13,5.13,0,0,1-.72-2.66,3.93,3.93,0,0,1,1.18-3,4.24,4.24,0,0,1,2.22-1l-8.23-.14L190,79.6A16.34,16.34,0,0,0,189.58,82.34Z"/><path class="cls-7" d="M170.85,82q0,3.27,3.12,3.27a4.59,4.59,0,0,0,3.69-2,11.79,11.79,0,0,0,1.05-1.71,17.91,17.91,0,0,1,.3-2l5.41-27.55-7.83-.14L171.16,79.6A9.16,9.16,0,0,0,170.85,82Z"/><path class="cls-8" d="M228.19,52.83,222.24,79.6a9.6,9.6,0,0,0-.3,2.44,2.81,2.81,0,0,0,.72,2.17,3.57,3.57,0,0,0,2.4.64,6.19,6.19,0,0,0,2.43-.45,8.08,8.08,0,0,1-2.7,5.82,8.55,8.55,0,0,1-5.67,2,7.93,7.93,0,0,1-5.9-2.28Q211,87.67,211,83.1a26.09,26.09,0,0,1,.61-4.94l4-25.55-9.23-.17a3.7,3.7,0,0,1,2.16,1.64,9,9,0,0,1,1.14,4.75,50.8,50.8,0,0,1-2.36,14.65,34.73,34.73,0,0,1-7.23,13.27A15.52,15.52,0,0,1,188,92.23,9.83,9.83,0,0,1,181.1,90a7.2,7.2,0,0,1-2-3.45,13.43,13.43,0,0,1-2.71,2.76A14.32,14.32,0,0,1,168,92.23a7.25,7.25,0,0,1-5.14-1.79,8,8,0,0,1-2.32-5.21,21.18,21.18,0,0,1-4.91,5.06,10.67,10.67,0,0,1-6.43,1.94,9.34,9.34,0,0,1-9.51-7.31,14.25,14.25,0,0,1-4.09,4.38,15.68,15.68,0,0,1-8.75,2.93A7.89,7.89,0,0,1,121,90q-2.25-2.28-2.25-6.85a26.94,26.94,0,0,1,.61-4.94L127.5,40l11.26-1.52L130,79.6a9.6,9.6,0,0,0-.3,2.44,2.81,2.81,0,0,0,.72,2.17,3.57,3.57,0,0,0,2.4.64A5.81,5.81,0,0,0,136.94,83a10.23,10.23,0,0,0,2.21-3.55,35,35,0,0,1,2.22-11.29,27.31,27.31,0,0,1,6.69-10.5,14.79,14.79,0,0,1,10.62-4.3,8.15,8.15,0,0,1,4.64,1.07,3.29,3.29,0,0,1,1.52,2.81v.54l.84-6.05-5.9-.1c-3.36-.06-5.11-.91-6.53-4.17A77.59,77.59,0,0,0,123,12.4,80.23,80.23,0,0,0,31.36,143.92c40.11,30.83,98.65,17,120.91-28.62,1.32-2.71,2.83-3.45,5.63-3.37l69.18.44c.86-20.6,6.93-40.37,14.79-59.29ZM59.32,95.55a22.57,22.57,0,0,1-31.64-.48c-8.39-8.73-8-23.21.8-31.67a22.08,22.08,0,0,1,31.24.71A21.93,21.93,0,0,1,59.32,95.55ZM110.14,39a5.29,5.29,0,0,0-3.77-1.26q-4.41,0-8.52,3.92a28.4,28.4,0,0,0-6.62,10.24,35.37,35.37,0,0,0-2.51,13.24c0,3.8.61,6.71,1.82,8.71a5.81,5.81,0,0,0,5.25,3q4.11,0,7.27-4.33t5.06-12.63l9,.07-5.56,25.57q-2.43,11.34-6.88,16.66a14.33,14.33,0,0,1-11.53,5.33,13.38,13.38,0,0,1-8.94-2.86,9.31,9.31,0,0,1-3.39-7.49,10.74,10.74,0,0,1,1.37-5.33A10.34,10.34,0,0,1,85.9,88a9.9,9.9,0,0,1,5.18-1.41,7.27,7.27,0,0,1,4.68,1.45,5.14,5.14,0,0,1,.95,6.69,4.72,4.72,0,0,0-1.87-1.44,5.87,5.87,0,0,0-2.47-.53,4.89,4.89,0,0,0-3.73,1.52,5.51,5.51,0,0,0-1.45,3.95,5.58,5.58,0,0,0,1.41,4,4.64,4.64,0,0,0,3.54,1.52,5.68,5.68,0,0,0,4.57-2.36,16.78,16.78,0,0,0,2.89-7l3.8-16.81h-.3a13.88,13.88,0,0,1-5,4.41,13.64,13.64,0,0,1-6.43,1.52,13.08,13.08,0,0,1-7.76-2.36,14.79,14.79,0,0,1-5.13-6.73A26.75,26.75,0,0,1,77,64.23,32.08,32.08,0,0,1,80.65,49a27.81,27.81,0,0,1,10-10.84,26.19,26.19,0,0,1,14.07-4q6.47,0,10.23,2.81a9.07,9.07,0,0,1,3.77,7.69,8.08,8.08,0,0,1-1.6,5.25,5.11,5.11,0,0,1-4.18,2,6.18,6.18,0,0,1-2.7-.61,5.53,5.53,0,0,1-2.09-1.75,7.08,7.08,0,0,0,2.32-2.93,9.5,9.5,0,0,0,1-4.07A4.67,4.67,0,0,0,110.14,39Z"/><path class="cls-9" d="M333.82,78c-7.77-6.75-15.58-13.44-23.34-20.19A14.08,14.08,0,0,0,301,54.13q-29.54-.5-59.08-1.05C234,72,227.94,91.77,227.08,112.37l25,.16v-2.42c0-.86,0-.88-.87-.88h-3.26a3.93,3.93,0,0,1-3.72-2.19,4.17,4.17,0,0,1,.24-4.45,10.31,10.31,0,0,1,1.4-1.63L273.3,73.51a7.31,7.31,0,0,1,2.78-1.87h2.09A7.39,7.39,0,0,1,281,73.51l8.64,8.43,13.27,13.48c2,1.93,3.91,3.9,5.86,5.85a7.13,7.13,0,0,1,1.77,2.69v2.09c-.05.12-.1.24-.14.36a4.11,4.11,0,0,1-4.17,2.82h-3c-1,0-1,0-1,1v2.65l14.13.09a33.47,33.47,0,0,0,3.62-3.81c4.95-5.92,9.8-11.92,14.78-17.8C338.88,86.43,338.68,82.19,333.82,78Z"/></g></g></svg>